<svg width="22" height="24" viewBox="0 0 22 24" fill="none" xmlns="http://www.w3.org/2000/svg">
<path d="M19.1996 24H3.59961V0H19.1996C20.5196 0 21.5996 1.08 21.5996 2.4V21.6C21.5996 22.92 20.5196 24 19.1996 24Z" fill="#FFE6AE"/>
<path d="M2.4 0H3.6V24H2.4C1.08 24 0 22.92 0 21.6V2.4C0 1.08 1.08 0 2.4 0Z" fill="#FFD146"/>
<path d="M11.9996 12.0002C13.3251 12.0002 14.3996 10.9257 14.3996 9.6002C14.3996 8.27471 13.3251 7.2002 11.9996 7.2002C10.6741 7.2002 9.59961 8.27471 9.59961 9.6002C9.59961 10.9257 10.6741 12.0002 11.9996 12.0002Z" fill="#FFD146"/>
<path d="M16.1988 15.6002C16.1988 15.6002 15.0588 13.2002 11.9988 13.2002C8.93883 13.2002 7.79883 15.6002 7.79883 15.6002V16.8002H16.1988V15.6002Z" fill="#FFD146"/>
</svg>
