<svg width="23" height="23" viewBox="0 0 23 23" fill="none" xmlns="http://www.w3.org/2000/svg">
<path d="M0 10.2222C0 5.40372 -1.52323e-07 2.99383 1.49756 1.49756C2.99511 0.00127769 5.40372 0 10.2222 0H12.7778C17.5963 0 20.0062 -1.52323e-07 21.5024 1.49756C22.9987 2.99511 23 5.40372 23 10.2222V12.7778C23 17.5963 23 20.0062 21.5024 21.5024C20.0049 22.9987 17.5963 23 12.7778 23H10.2222C5.40372 23 2.99383 23 1.49756 21.5024C0.00127769 20.0049 0 17.5963 0 12.7778V10.2222Z" fill="#C8F3F9"/>
<path d="M11.5 15C14.5376 15 17 12.5376 17 9.5C17 6.46243 14.5376 4 11.5 4C8.46243 4 6 6.46243 6 9.5C6 12.5376 8.46243 15 11.5 15Z" fill="#8BD7E1"/>
<path fill-rule="evenodd" clip-rule="evenodd" d="M20.9959 22.1285C21.0074 22.1884 20.9947 22.2499 20.9599 22.3029C20.9251 22.3559 20.8704 22.3972 20.8045 22.4202C19.1626 23 16.7442 23 12.867 23H10.1328C6.25701 23 3.83721 23 2.1953 22.419C2.1297 22.3961 2.0751 22.3549 2.04035 22.3022C2.00561 22.2494 1.99277 22.1882 2.00391 22.1285C2.5904 18.674 6.61793 16 11.4999 16C16.3819 16 20.4094 18.674 20.9959 22.1285Z" fill="#8BD7E1"/>
</svg>
