<svg width="23" height="24" viewBox="0 0 23 24" fill="none" xmlns="http://www.w3.org/2000/svg">
<path opacity="0.5" d="M1.4962 17.9501C2.05177 20.7267 2.32955 22.1144 3.32645 22.9322C4.32335 23.7499 5.73993 23.7499 8.57189 23.7499H13.5768C16.4088 23.7499 17.8242 23.7499 18.8211 22.9322C19.8192 22.1144 20.0958 20.7267 20.6525 17.9501L21.374 14.3425C22.1725 10.3501 22.5718 8.35388 21.4895 7.03229C20.4072 5.71071 18.3701 5.71191 14.2971 5.71191H7.85158C3.77981 5.71191 1.74272 5.71191 0.66044 7.03229C-0.421838 8.35267 -0.0225977 10.3489 0.775883 14.3425L1.4962 17.9501Z" fill="#D7A9E5"/>
<path d="M14.681 10.5223C15.3452 10.5223 15.8836 9.98386 15.8836 9.31972C15.8836 8.65558 15.3452 8.11719 14.681 8.11719C14.0169 8.11719 13.4785 8.65558 13.4785 9.31972C13.4785 9.98386 14.0169 10.5223 14.681 10.5223Z" fill="#D7A9E5"/>
<path d="M7.4662 10.5223C8.13034 10.5223 8.66874 9.98386 8.66874 9.31972C8.66874 8.65558 8.13034 8.11719 7.4662 8.11719C6.80206 8.11719 6.26367 8.65558 6.26367 9.31972C6.26367 9.98386 6.80206 10.5223 7.4662 10.5223Z" fill="#D7A9E5"/>
<path d="M8.36825 4.50949C8.36825 3.7919 8.65331 3.10369 9.16073 2.59628C9.66815 2.08886 10.3564 1.8038 11.0739 1.8038C11.7915 1.8038 12.4797 2.08886 12.9872 2.59628C13.4946 3.10369 13.7796 3.7919 13.7796 4.50949V5.71203H14.2979C14.7509 5.71203 15.1794 5.71283 15.5834 5.71443V4.50949C15.5834 3.3135 15.1083 2.16649 14.2626 1.3208C13.4169 0.475106 12.2699 0 11.0739 0C9.87795 0 8.73095 0.475106 7.88525 1.3208C7.03956 2.16649 6.56445 3.3135 6.56445 4.50949V5.71443C6.9685 5.71203 7.39701 5.71122 7.84996 5.71203H8.36825V4.50949Z" fill="#D7A9E5"/>
</svg>
