<svg width="36" height="36" viewBox="0 0 36 36" fill="none" xmlns="http://www.w3.org/2000/svg">
<mask id="path-1-outside-1_560_182" maskUnits="userSpaceOnUse" x="0" y="0" width="36" height="36" fill="black">
<rect fill="white" width="36" height="36"/>
<path d="M26.052 3.00012H9.9141C8.99955 2.99929 8.09389 3.17968 7.24946 3.53088C6.40502 3.88208 5.63853 4.39713 4.99428 5.04626C4.35254 5.69332 3.8458 6.46148 3.50353 7.3061C3.16125 8.15072 2.99027 9.05496 3.00051 9.96624V26.0339C2.98941 26.9453 3.16 27.8498 3.50233 28.6945C3.84465 29.5392 4.35184 30.3073 4.99428 30.9538C5.63835 31.6028 6.40459 32.1177 7.24875 32.4689C8.09291 32.8201 8.99827 33.0006 9.91256 33H17.24V22.2831H14.4401C14.2668 22.2819 14.1008 22.2127 13.978 22.0905C13.8552 21.9682 13.7852 21.8026 13.7832 21.6293V18.1893C13.783 18.1009 13.8003 18.0133 13.8341 17.9316C13.868 17.85 13.9176 17.7758 13.9803 17.7134C14.0429 17.6511 14.1173 17.6017 14.1991 17.5683C14.281 17.5348 14.3686 17.5179 14.457 17.5185H17.24V14.1647C17.1619 13.372 17.2587 12.5719 17.5234 11.8207C17.7882 11.0695 18.2145 10.3856 18.7722 9.81701C19.3306 9.24588 20.0067 8.80341 20.7536 8.52043C21.5005 8.23745 22.3001 8.12078 23.0967 8.17856H25.9489C26.0362 8.17916 26.1224 8.19702 26.2028 8.23111C26.2831 8.2652 26.3559 8.31485 26.417 8.3772C26.478 8.43955 26.5261 8.51337 26.5586 8.59439C26.591 8.67542 26.607 8.76206 26.6058 8.84932V11.757C26.6058 11.8431 26.5888 11.9283 26.5557 12.0077C26.5226 12.0871 26.4742 12.1593 26.4131 12.2199C26.3521 12.2805 26.2796 12.3285 26.1999 12.361C26.1203 12.3935 26.0349 12.4099 25.9489 12.4093H24.2213C22.3198 12.4093 21.9567 13.3047 21.9567 14.6108V17.5016H26.1043C26.1978 17.5011 26.2903 17.5206 26.3757 17.5586C26.4611 17.5967 26.5374 17.6525 26.5996 17.7224C26.6617 17.7923 26.7083 17.8746 26.7361 17.9638C26.764 18.0531 26.7725 18.1472 26.7612 18.2401L26.3458 21.6816C26.3289 21.8434 26.2522 21.9931 26.1307 22.1012C26.0091 22.2094 25.8516 22.2682 25.6889 22.2662H21.9737V32.9831H26.0874C27.0017 32.9837 27.907 32.8032 28.7512 32.452C29.5953 32.1008 30.3616 31.5859 31.0056 30.9369C31.6476 30.2897 32.1544 29.5213 32.4967 28.6764C32.839 27.8315 33.0099 26.927 32.9994 26.0154V9.96624C33.0114 9.05179 32.8401 8.14421 32.4955 7.29707C32.151 6.44993 31.6402 5.68042 30.9933 5.03395C30.3455 4.38446 29.5751 3.87019 28.7268 3.52104C27.8785 3.17189 26.9693 2.99482 26.052 3.00012Z"/>
</mask>
<path d="M26.052 3.00012H9.9141C8.99955 2.99929 8.09389 3.17968 7.24946 3.53088C6.40502 3.88208 5.63853 4.39713 4.99428 5.04626C4.35254 5.69332 3.8458 6.46148 3.50353 7.3061C3.16125 8.15072 2.99027 9.05496 3.00051 9.96624V26.0339C2.98941 26.9453 3.16 27.8498 3.50233 28.6945C3.84465 29.5392 4.35184 30.3073 4.99428 30.9538C5.63835 31.6028 6.40459 32.1177 7.24875 32.4689C8.09291 32.8201 8.99827 33.0006 9.91256 33H17.24V22.2831H14.4401C14.2668 22.2819 14.1008 22.2127 13.978 22.0905C13.8552 21.9682 13.7852 21.8026 13.7832 21.6293V18.1893C13.783 18.1009 13.8003 18.0133 13.8341 17.9316C13.868 17.85 13.9176 17.7758 13.9803 17.7134C14.0429 17.6511 14.1173 17.6017 14.1991 17.5683C14.281 17.5348 14.3686 17.5179 14.457 17.5185H17.24V14.1647C17.1619 13.372 17.2587 12.5719 17.5234 11.8207C17.7882 11.0695 18.2145 10.3856 18.7722 9.81701C19.3306 9.24588 20.0067 8.80341 20.7536 8.52043C21.5005 8.23745 22.3001 8.12078 23.0967 8.17856H25.9489C26.0362 8.17916 26.1224 8.19702 26.2028 8.23111C26.2831 8.2652 26.3559 8.31485 26.417 8.3772C26.478 8.43955 26.5261 8.51337 26.5586 8.59439C26.591 8.67542 26.607 8.76206 26.6058 8.84932V11.757C26.6058 11.8431 26.5888 11.9283 26.5557 12.0077C26.5226 12.0871 26.4742 12.1593 26.4131 12.2199C26.3521 12.2805 26.2796 12.3285 26.1999 12.361C26.1203 12.3935 26.0349 12.4099 25.9489 12.4093H24.2213C22.3198 12.4093 21.9567 13.3047 21.9567 14.6108V17.5016H26.1043C26.1978 17.5011 26.2903 17.5206 26.3757 17.5586C26.4611 17.5967 26.5374 17.6525 26.5996 17.7224C26.6617 17.7923 26.7083 17.8746 26.7361 17.9638C26.764 18.0531 26.7725 18.1472 26.7612 18.2401L26.3458 21.6816C26.3289 21.8434 26.2522 21.9931 26.1307 22.1012C26.0091 22.2094 25.8516 22.2682 25.6889 22.2662H21.9737V32.9831H26.0874C27.0017 32.9837 27.907 32.8032 28.7512 32.452C29.5953 32.1008 30.3616 31.5859 31.0056 30.9369C31.6476 30.2897 32.1544 29.5213 32.4967 28.6764C32.839 27.8315 33.0099 26.927 32.9994 26.0154V9.96624C33.0114 9.05179 32.8401 8.14421 32.4955 7.29707C32.151 6.44993 31.6402 5.68042 30.9933 5.03395C30.3455 4.38446 29.5751 3.87019 28.7268 3.52104C27.8785 3.17189 26.9693 2.99482 26.052 3.00012Z" fill="#7AA9FF"/>
<path d="M26.052 3.00012V6.00012H26.0606L26.0693 6.00007L26.052 3.00012ZM9.9141 3.00012L9.91138 6.00012H9.9141V3.00012ZM4.99428 5.04626L2.86497 2.93296L2.86424 2.9337L4.99428 5.04626ZM3.00051 9.96624H6.00051V9.94938L6.00032 9.93253L3.00051 9.96624ZM3.00051 26.0339L6.00029 26.0704L6.00051 26.0521V26.0339H3.00051ZM4.99428 30.9538L7.12359 28.8406L7.12234 28.8393L4.99428 30.9538ZM9.91256 33V30H9.91051L9.91256 33ZM17.24 33V36H20.24V33H17.24ZM17.24 22.2831H20.24V19.2831H17.24V22.2831ZM14.4401 22.2831L14.4194 25.283L14.4297 25.2831H14.4401V22.2831ZM13.7832 21.6293H10.7832V21.6467L10.7834 21.6641L13.7832 21.6293ZM13.7832 18.1893H16.7832L16.7832 18.1823L13.7832 18.1893ZM14.457 17.5185L14.4363 20.5184L14.4467 20.5185H14.457V17.5185ZM17.24 17.5185V20.5185H20.24V17.5185H17.24ZM17.24 14.1647H20.24V14.0174L20.2256 13.8707L17.24 14.1647ZM18.7722 9.81701L20.9138 11.9179L20.9175 11.9142L18.7722 9.81701ZM23.0967 8.17856L22.8797 11.1707L22.9881 11.1786H23.0967V8.17856ZM25.9489 8.17856L25.9695 5.17863L25.9592 5.17856H25.9489V8.17856ZM26.6058 8.84932L23.6061 8.80739L23.6058 8.82836V8.84932H26.6058ZM26.6058 11.757H23.6058V11.7571L26.6058 11.757ZM25.9489 12.4093L25.9701 9.40938L25.9595 9.40931H25.9489V12.4093ZM21.9567 17.5016H18.9567V20.5016H21.9567V17.5016ZM26.1043 17.5016V20.5016H26.1119L26.1195 20.5016L26.1043 17.5016ZM26.7612 18.2401L23.7834 17.8755L23.7828 17.8806L26.7612 18.2401ZM26.3458 21.6816L23.3674 21.3221L23.3645 21.3463L23.362 21.3705L26.3458 21.6816ZM25.6889 22.2662L25.7263 19.2664L25.7076 19.2662H25.6889V22.2662ZM21.9737 22.2662V19.2662H18.9737V22.2662H21.9737ZM21.9737 32.9831H18.9737V35.9831H21.9737V32.9831ZM26.0874 32.9831L26.0894 29.9831H26.0874V32.9831ZM31.0056 30.9369L33.135 33.0502L33.1357 33.0495L31.0056 30.9369ZM32.9994 26.0154H29.9994V26.0326L29.9996 26.0498L32.9994 26.0154ZM32.9994 9.96624L29.9997 9.92689L29.9994 9.94657V9.96624H32.9994ZM30.9933 5.03395L28.8693 7.15254L28.8727 7.15592L30.9933 5.03395ZM26.052 0.000115395H9.9141V6.00012H26.052V0.000115395ZM9.91682 0.000116587C8.60594 -0.00107265 7.3078 0.257501 6.09742 0.760896L8.40149 6.30087C8.87998 6.10186 9.39316 5.99964 9.91138 6.00011L9.91682 0.000116587ZM6.09742 0.760896C4.88704 1.26429 3.7884 2.00253 2.86497 2.93296L7.1236 7.15956C7.48867 6.79172 7.92299 6.49987 8.40149 6.30087L6.09742 0.760896ZM2.86424 2.9337C1.94253 3.86304 1.21474 4.96631 0.723149 6.17938L6.2839 8.43282C6.47687 7.95666 6.76254 7.5236 7.12433 7.15882L2.86424 2.9337ZM0.723149 6.17938C0.231562 7.39246 -0.0140114 8.69114 0.00069809 9.99996L6.00032 9.93253C5.99455 9.41877 6.09094 8.90899 6.2839 8.43282L0.723149 6.17938ZM0.000508785 9.96624V26.0339H6.00051V9.96624H0.000508785ZM0.00073123 25.9973C-0.0152197 27.3072 0.229958 28.6071 0.721948 29.8212L6.2827 27.5678C6.09005 27.0924 5.99404 26.5833 6.00029 26.0704L0.00073123 25.9973ZM0.721948 29.8212C1.21394 31.0353 1.94288 32.1392 2.86622 33.0684L7.12234 28.8393C6.7608 28.4754 6.47536 28.0432 6.2827 27.5678L0.721948 29.8212ZM2.86497 33.0671C3.78814 33.9973 4.88642 34.7354 6.09641 35.2388L8.40109 29.6991C7.92275 29.5001 7.48856 29.2083 7.12359 28.8406L2.86497 33.0671ZM6.09641 35.2388C7.30639 35.7422 8.6041 36.0009 9.91462 36L9.91051 30C9.39244 30.0004 8.87942 29.8981 8.40109 29.6991L6.09641 35.2388ZM9.91256 36H17.24V30H9.91256V36ZM20.24 33V22.2831H14.24V33H20.24ZM17.24 19.2831H14.4401V25.2831H17.24V19.2831ZM14.4608 19.2832C15.0736 19.2874 15.6601 19.532 16.0944 19.9642L11.8616 24.2167C12.5416 24.8935 13.46 25.2764 14.4194 25.283L14.4608 19.2832ZM16.0944 19.9642C16.5286 20.3964 16.7759 20.9818 16.783 21.5945L10.7834 21.6641C10.7945 22.6234 11.1817 23.5399 11.8616 24.2167L16.0944 19.9642ZM16.7832 21.6293V18.1893H10.7832V21.6293H16.7832ZM16.7832 18.1823C16.7839 18.4902 16.7236 18.7952 16.6058 19.0796L11.0625 16.7837C10.877 17.2315 10.7821 17.7116 10.7832 18.1963L16.7832 18.1823ZM16.6058 19.0796C16.488 19.364 16.315 19.6223 16.0968 19.8396L11.8638 15.5873C11.5203 15.9293 11.2479 16.3359 11.0625 16.7837L16.6058 19.0796ZM16.0968 19.8396C15.8786 20.0568 15.6195 20.2286 15.3345 20.3451L13.0638 14.7914C12.6152 14.9748 12.2073 15.2453 11.8638 15.5873L16.0968 19.8396ZM15.3345 20.3451C15.0495 20.4617 14.7442 20.5206 14.4363 20.5184L14.4777 14.5186C13.993 14.5152 13.5125 14.608 13.0638 14.7914L15.3345 20.3451ZM14.457 20.5185H17.24V14.5185H14.457V20.5185ZM20.24 17.5185V14.1647H14.24V17.5185H20.24ZM20.2256 13.8707C20.1905 13.5147 20.234 13.1553 20.3529 12.8179L14.694 10.8236C14.2835 11.9885 14.1334 13.2294 14.2544 14.4586L20.2256 13.8707ZM20.3529 12.8179C20.4718 12.4805 20.6632 12.1733 20.9138 11.9179L16.6307 7.71609C15.7657 8.59784 15.1046 9.65858 14.694 10.8236L20.3529 12.8179ZM20.9175 11.9142C21.1708 11.655 21.4776 11.4542 21.8165 11.3258L19.6907 5.71504C18.5358 6.15259 17.4903 6.83677 16.627 7.71986L20.9175 11.9142ZM21.8165 11.3258C22.1554 11.1974 22.5182 11.1445 22.8797 11.1707L23.3137 5.18642C22.082 5.09708 20.8456 5.27748 19.6907 5.71504L21.8165 11.3258ZM23.0967 11.1786H25.9489V5.17856H23.0967V11.1786ZM25.9283 11.1785C25.6198 11.1764 25.3148 11.1132 25.0308 10.9927L27.3748 5.46952C26.9301 5.28081 26.4526 5.18195 25.9695 5.17863L25.9283 11.1785ZM25.0308 10.9927C24.7468 10.8722 24.4895 10.6967 24.2736 10.4763L28.5603 6.27815C28.2224 5.93305 27.8194 5.65823 27.3748 5.46952L25.0308 10.9927ZM24.2736 10.4763C24.0577 10.2558 23.8876 9.99489 23.7731 9.70851L29.344 7.48028C29.1646 7.03184 28.8983 6.62328 28.5603 6.27815L24.2736 10.4763ZM23.7731 9.70851C23.6585 9.42211 23.6018 9.11586 23.6061 8.80739L29.6055 8.89125C29.6123 8.40826 29.5234 7.92873 29.344 7.48028L23.7731 9.70851ZM23.6058 8.84932V11.757H29.6058V8.84932H23.6058ZM23.6058 11.7571C23.6058 11.4474 23.6671 11.1407 23.7861 10.8548L29.3253 13.1606C29.5105 12.7158 29.6058 12.2387 29.6058 11.7569L23.6058 11.7571ZM23.7861 10.8548C23.9051 10.5689 24.0795 10.3094 24.2993 10.0911L28.527 14.3486C28.8689 14.0091 29.1402 13.6054 29.3253 13.1606L23.7861 10.8548ZM24.2993 10.0911C24.519 9.87292 24.7798 9.70033 25.0666 9.58331L27.3333 15.1387C27.7794 14.9566 28.1851 14.6881 28.527 14.3486L24.2993 10.0911ZM25.0666 9.58331C25.3533 9.46631 25.6604 9.40719 25.9701 9.40938L25.9277 15.4092C26.4095 15.4126 26.8872 15.3207 27.3333 15.1387L25.0666 9.58331ZM25.9489 9.40931H24.2213V15.4093H25.9489V9.40931ZM24.2213 9.40931C22.8789 9.40931 21.2415 9.7203 20.0884 11.0794C19.0278 12.3294 18.9567 13.8289 18.9567 14.6108H24.9567C24.9567 14.4025 24.9735 14.3605 24.9615 14.411C24.9451 14.4798 24.8769 14.7097 24.6635 14.9612C24.438 15.2269 24.1874 15.3558 24.0467 15.4046C23.9383 15.4421 23.9631 15.4093 24.2213 15.4093V9.40931ZM18.9567 14.6108V17.5016H24.9567V14.6108H18.9567ZM21.9567 20.5016H26.1043V14.5016H21.9567V20.5016ZM26.1195 20.5016C25.787 20.5032 25.4579 20.4341 25.1542 20.2987L27.5972 14.8186C27.1227 14.6071 26.6086 14.499 26.0891 14.5016L26.1195 20.5016ZM25.1542 20.2987C24.8505 20.1633 24.5791 19.9648 24.3581 19.7163L28.8411 15.7285C28.4958 15.3403 28.0717 15.0301 27.5972 14.8186L25.1542 20.2987ZM24.3581 19.7163C24.1371 19.4679 23.9715 19.1752 23.8724 18.8578L29.5998 17.0698C29.445 16.5739 29.1864 16.1166 28.8411 15.7285L24.3581 19.7163ZM23.8724 18.8578C23.7734 18.5404 23.743 18.2056 23.7834 17.8755L29.739 18.6046C29.8021 18.0889 29.7547 17.5657 29.5998 17.0698L23.8724 18.8578ZM23.7828 17.8806L23.3674 21.3221L29.3242 22.0411L29.7396 18.5995L23.7828 17.8806ZM23.362 21.3705C23.4227 20.7882 23.6988 20.2495 24.1362 19.8602L28.1251 24.3423C28.8056 23.7367 29.2352 22.8986 29.3296 21.9927L23.362 21.3705ZM24.1362 19.8602C24.5737 19.4709 25.1408 19.2591 25.7263 19.2664L25.6515 25.266C26.5624 25.2773 27.4446 24.9479 28.1251 24.3423L24.1362 19.8602ZM25.6889 19.2662H21.9737V25.2662H25.6889V19.2662ZM18.9737 22.2662V32.9831H24.9737V22.2662H18.9737ZM21.9737 35.9831H26.0874V29.9831H21.9737V35.9831ZM26.0853 35.9831C27.3958 35.984 28.6935 35.7253 29.9035 35.2219L27.5988 29.6822C27.1205 29.8812 26.6075 29.9834 26.0894 29.9831L26.0853 35.9831ZM29.9035 35.2219C31.1135 34.7185 32.2118 33.9804 33.135 33.0502L28.8763 28.8236C28.5114 29.1914 28.0772 29.4832 27.5988 29.6822L29.9035 35.2219ZM33.1357 33.0495C34.0577 32.1199 34.7856 31.0163 35.2772 29.8028L29.7162 27.55C29.5232 28.0263 29.2375 28.4595 28.8756 28.8244L33.1357 33.0495ZM35.2772 29.8028C35.7688 28.5893 36.0142 27.2902 35.9992 25.981L29.9996 26.0498C30.0055 26.5637 29.9092 27.0736 29.7162 27.55L35.2772 29.8028ZM35.9994 26.0154V9.96624H29.9994V26.0154H35.9994ZM35.9992 10.0056C36.0164 8.69044 35.77 7.38516 35.2745 6.16681L29.7166 8.42733C29.9101 8.90325 30.0064 9.41314 29.9997 9.92689L35.9992 10.0056ZM35.2745 6.16681C34.7789 4.94845 34.0443 3.84174 33.114 2.91199L28.8727 7.15592C29.2361 7.5191 29.523 7.95141 29.7166 8.42733L35.2745 6.16681ZM33.1174 2.91537C32.1888 1.98443 31.0845 1.2473 29.8686 0.746845L27.5849 6.29524C28.0656 6.49309 28.5022 6.78449 28.8693 7.15254L33.1174 2.91537ZM29.8686 0.746845C28.6527 0.246387 27.3495 -0.00742292 26.0347 0.000165224L26.0693 6.00007C26.5891 5.99707 27.1043 6.0974 27.5849 6.29524L29.8686 0.746845Z" fill="#D0DFFA" mask="url(#path-1-outside-1_560_182)"/>
</svg>
