<svg width="36" height="36" viewBox="0 0 36 36" fill="none" xmlns="http://www.w3.org/2000/svg">
<mask id="path-1-outside-1_572_181" maskUnits="userSpaceOnUse" x="0" y="0" width="37" height="36" fill="black">
<rect fill="white" width="37" height="36"/>
<path d="M17.996 12.9979C15.2417 12.9979 12.9939 15.2456 12.9939 18C12.9939 20.7544 15.2417 23.0021 17.996 23.0021C20.7503 23.0021 22.998 20.7544 22.998 18C22.998 15.2456 20.7503 12.9979 17.996 12.9979ZM32.9983 18C32.9983 15.9286 33.0171 13.876 32.9008 11.8083C32.7844 9.40669 32.2366 7.27525 30.4804 5.51907C28.7205 3.75913 26.5929 3.21501 24.1913 3.09868C22.1199 2.98235 20.0673 3.00112 17.9997 3.00112C15.9284 3.00112 13.8758 2.98235 11.8082 3.09868C9.40658 3.21501 7.27517 3.76288 5.51902 5.51907C3.75911 7.27901 3.21501 9.40669 3.09868 11.8083C2.98235 13.8797 3.00112 15.9324 3.00112 18C3.00112 20.0676 2.98235 22.124 3.09868 24.1917C3.21501 26.5933 3.76287 28.7247 5.51902 30.4809C7.27893 32.2409 9.40658 32.785 11.8082 32.9013C13.8795 33.0176 15.9321 32.9989 17.9997 32.9989C20.0711 32.9989 22.1237 33.0176 24.1913 32.9013C26.5929 32.785 28.7243 32.2371 30.4804 30.4809C32.2403 28.721 32.7844 26.5933 32.9008 24.1917C33.0208 22.124 32.9983 20.0714 32.9983 18ZM17.996 25.6964C13.7369 25.6964 10.2997 22.2591 10.2997 18C10.2997 13.7409 13.7369 10.3035 17.996 10.3035C22.255 10.3035 25.6923 13.7409 25.6923 18C25.6923 22.2591 22.255 25.6964 17.996 25.6964ZM26.0075 11.7858C25.0131 11.7858 24.2101 10.9828 24.2101 9.98834C24.2101 8.99392 25.0131 8.19087 26.0075 8.19087C27.0019 8.19087 27.8049 8.99392 27.8049 9.98834C27.8052 10.2245 27.7589 10.4583 27.6687 10.6765C27.5785 10.8948 27.4461 11.093 27.2791 11.26C27.1122 11.427 26.9139 11.5594 26.6957 11.6496C26.4775 11.7398 26.2436 11.7861 26.0075 11.7858Z"/>
</mask>
<path d="M17.996 12.9979C15.2417 12.9979 12.9939 15.2456 12.9939 18C12.9939 20.7544 15.2417 23.0021 17.996 23.0021C20.7503 23.0021 22.998 20.7544 22.998 18C22.998 15.2456 20.7503 12.9979 17.996 12.9979ZM32.9983 18C32.9983 15.9286 33.0171 13.876 32.9008 11.8083C32.7844 9.40669 32.2366 7.27525 30.4804 5.51907C28.7205 3.75913 26.5929 3.21501 24.1913 3.09868C22.1199 2.98235 20.0673 3.00112 17.9997 3.00112C15.9284 3.00112 13.8758 2.98235 11.8082 3.09868C9.40658 3.21501 7.27517 3.76288 5.51902 5.51907C3.75911 7.27901 3.21501 9.40669 3.09868 11.8083C2.98235 13.8797 3.00112 15.9324 3.00112 18C3.00112 20.0676 2.98235 22.124 3.09868 24.1917C3.21501 26.5933 3.76287 28.7247 5.51902 30.4809C7.27893 32.2409 9.40658 32.785 11.8082 32.9013C13.8795 33.0176 15.9321 32.9989 17.9997 32.9989C20.0711 32.9989 22.1237 33.0176 24.1913 32.9013C26.5929 32.785 28.7243 32.2371 30.4804 30.4809C32.2403 28.721 32.7844 26.5933 32.9008 24.1917C33.0208 22.124 32.9983 20.0714 32.9983 18ZM17.996 25.6964C13.7369 25.6964 10.2997 22.2591 10.2997 18C10.2997 13.7409 13.7369 10.3035 17.996 10.3035C22.255 10.3035 25.6923 13.7409 25.6923 18C25.6923 22.2591 22.255 25.6964 17.996 25.6964ZM26.0075 11.7858C25.0131 11.7858 24.2101 10.9828 24.2101 9.98834C24.2101 8.99392 25.0131 8.19087 26.0075 8.19087C27.0019 8.19087 27.8049 8.99392 27.8049 9.98834C27.8052 10.2245 27.7589 10.4583 27.6687 10.6765C27.5785 10.8948 27.4461 11.093 27.2791 11.26C27.1122 11.427 26.9139 11.5594 26.6957 11.6496C26.4775 11.7398 26.2436 11.7861 26.0075 11.7858Z" fill="#FFAFE3"/>
<path d="M17.996 12.9979C15.2417 12.9979 12.9939 15.2456 12.9939 18C12.9939 20.7544 15.2417 23.0021 17.996 23.0021C20.7503 23.0021 22.998 20.7544 22.998 18C22.998 15.2456 20.7503 12.9979 17.996 12.9979ZM32.9983 18C32.9983 15.9286 33.0171 13.876 32.9008 11.8083C32.7844 9.40669 32.2366 7.27525 30.4804 5.51907C28.7205 3.75913 26.5929 3.21501 24.1913 3.09868C22.1199 2.98235 20.0673 3.00112 17.9997 3.00112C15.9284 3.00112 13.8758 2.98235 11.8082 3.09868C9.40658 3.21501 7.27517 3.76288 5.51902 5.51907C3.75911 7.27901 3.21501 9.40669 3.09868 11.8083C2.98235 13.8797 3.00112 15.9324 3.00112 18C3.00112 20.0676 2.98235 22.124 3.09868 24.1917C3.21501 26.5933 3.76287 28.7247 5.51902 30.4809C7.27893 32.2409 9.40658 32.785 11.8082 32.9013C13.8795 33.0176 15.9321 32.9989 17.9997 32.9989C20.0711 32.9989 22.1237 33.0176 24.1913 32.9013C26.5929 32.785 28.7243 32.2371 30.4804 30.4809C32.2403 28.721 32.7844 26.5933 32.9008 24.1917C33.0208 22.124 32.9983 20.0714 32.9983 18ZM17.996 25.6964C13.7369 25.6964 10.2997 22.2591 10.2997 18C10.2997 13.7409 13.7369 10.3035 17.996 10.3035C22.255 10.3035 25.6923 13.7409 25.6923 18C25.6923 22.2591 22.255 25.6964 17.996 25.6964ZM26.0075 11.7858C25.0131 11.7858 24.2101 10.9828 24.2101 9.98834C24.2101 8.99392 25.0131 8.19087 26.0075 8.19087C27.0019 8.19087 27.8049 8.99392 27.8049 9.98834C27.8052 10.2245 27.7589 10.4583 27.6687 10.6765C27.5785 10.8948 27.4461 11.093 27.2791 11.26C27.1122 11.427 26.9139 11.5594 26.6957 11.6496C26.4775 11.7398 26.2436 11.7861 26.0075 11.7858Z" stroke="#F772C8" stroke-width="6" mask="url(#path-1-outside-1_572_181)"/>
</svg>
