<svg width="36" height="37" viewBox="0 0 36 37" fill="none" xmlns="http://www.w3.org/2000/svg">
<path d="M17.4529 30.6365L17.414 30.6561C17.1545 30.5704 16.8747 30.5553 16.6039 30.6155C16.2199 30.7008 15.8834 30.9311 15.6649 31.2585L15.5882 31.3734L15.5337 31.5004L15.5255 31.5197L15.4211 31.7632L15.4065 32.0277L15.3597 32.8721L15.3551 32.9551L15.3597 33.0382C15.3723 33.2645 15.4395 33.5597 15.6399 33.8427C15.844 34.1308 16.1125 34.3019 16.3541 34.3925L16.7063 34.5246L17.0791 34.4748L17.0998 34.4721L17.1206 34.4693L17.4815 34.5656L17.7615 34.4722C17.9334 34.4962 18.1477 34.497 18.3836 34.4319C18.7331 34.3355 19.0063 34.1283 19.1906 33.8888L19.3652 33.6618L19.4439 33.3863L19.4494 33.3671L19.5188 33.1242L19.5048 32.8721L19.4581 32.0277L19.4491 31.8656L19.4057 31.7091C19.2928 31.3027 18.9587 30.8015 18.3194 30.631L18.0156 30.55L17.7049 30.5978L17.687 30.6005L17.4529 30.6365ZM16.8393 33.0987C16.8213 33.0789 16.8042 33.0589 16.7879 33.039L16.7964 33.022L16.8696 33.018L16.8847 33.0172L16.9055 33.016L16.9154 33.0155L16.9286 33.0147L16.9216 33.0289L16.9103 33.0518L16.8938 33.0854L16.8707 33.1322C16.8604 33.1216 16.8502 33.1107 16.8402 33.0997C16.8399 33.0994 16.8396 33.099 16.8393 33.0987ZM17.0667 33.021L17.0712 33.0068L17.0863 33.006L17.1261 33.0038L17.1346 33.0033L17.1939 33L17.2053 32.9994L17.2264 32.9982L17.2426 32.9973L17.2728 32.9957L17.2878 32.9948L17.3094 32.9936L17.3264 32.9927L17.4039 32.9884L17.413 32.9949L17.4337 33.0004L17.4502 32.9949L17.4518 32.9937L17.4514 32.9966L17.4512 32.9979L17.4454 33.0356L17.4316 33.1251L17.4289 33.1429L17.4275 33.1521L17.4252 33.1666L17.3992 33.3357L17.378 33.4736C17.3568 33.4651 17.3357 33.456 17.3147 33.4464C17.3082 33.4434 17.3016 33.4404 17.2951 33.4373C17.2708 33.4257 17.2467 33.4134 17.2228 33.4004C17.22 33.3989 17.2171 33.3973 17.2143 33.3957C17.2099 33.3933 17.2056 33.3909 17.2013 33.3884C17.1851 33.3793 17.1691 33.3698 17.1533 33.36C17.1447 33.3547 17.1362 33.3493 17.1277 33.3438C17.1218 33.34 17.116 33.3361 17.1102 33.3323C17.0858 33.316 17.0618 33.2989 17.0383 33.281C17.0287 33.2738 17.0192 33.2664 17.0098 33.2588C17.0051 33.2551 17.0005 33.2514 16.9959 33.2476L17.0068 33.2129L17.038 33.1129L17.045 33.0906L17.055 33.0585L17.0667 33.021Z" stroke="#45BFA1" stroke-width="3"/>
<path d="M18.515 21.7767L18.5073 21.7723C17.8388 21.3896 16.8233 20.7191 16.0528 19.9487C15.2804 19.1762 14.6429 18.1971 14.2879 17.5499L14.2801 17.5357L14.2726 17.5214C14.0698 17.132 14.0125 16.683 14.111 16.2552C14.2095 15.8273 14.4574 15.4486 14.8101 15.1871L15.7966 14.4546C15.2193 13.6047 14.6878 12.8324 14.0113 12.2693C13.1896 12.7285 12.608 13.6468 12.635 14.3855L18.515 21.7767ZM18.515 21.7767L18.5227 21.781M18.515 21.7767L18.5227 21.781M18.5227 21.781C18.9318 22.0088 19.4121 22.0725 19.8664 21.9593C20.3188 21.8466 20.7116 21.5669 20.966 21.1765C20.9672 21.1748 20.9683 21.1731 20.9694 21.1714L21.5835 20.2349C22.4465 20.835 23.1646 21.3632 23.7242 22.0041C23.2662 22.8175 22.3526 23.3935 21.6159 23.3665C20.8896 23.3399 18.3816 23.0462 15.6679 20.3341L18.5227 21.781ZM18.001 34.5C27.1134 34.4995 34.5 27.1126 34.5 18C34.5 8.88707 27.1129 1.5 18 1.5C8.88707 1.5 1.5 8.88707 1.5 18C1.5 20.8758 2.23784 23.5869 3.53661 25.9452L2.37998 29.8766C2.2271 30.3963 2.21704 30.9475 2.35086 31.4724C2.48469 31.9973 2.75745 32.4765 3.14048 32.8595C3.52351 33.2425 4.00266 33.5153 4.52755 33.6491C5.05245 33.783 5.6037 33.7729 6.12336 33.62L10.0551 32.4633C12.4859 33.8009 15.2192 34.5034 18.001 34.5ZM18.001 34.5C18.0006 34.5 18.0003 34.5 18 34.5V33L18.0019 34.5C18.0016 34.5 18.0013 34.5 18.001 34.5ZM15.6677 20.3338C15.6676 20.3337 15.6675 20.3337 15.6674 20.3336C12.9555 17.62 12.6617 15.1122 12.635 14.3857L15.6677 20.3338Z" fill="#95E4A2" stroke="#45BFA1" stroke-width="3"/>
</svg>